name E:\Dropbox\SEL\BOX\Experiment\240124_SUB1_PJH\c3d\XYZ\UpDown_TrcMot\15_10_trial1_U1_ExtLoadAPP1.mot
datacolumns 37
datarows 7
range 3.225 3.231
endheader

time	    ground_force1_vx	    ground_force1_vy	    ground_force1_vz	    ground_force1_px	    ground_force1_py	    ground_force1_pz	    ground_torque1_x	    ground_torque1_y	    ground_torque1_z	    ground_force2_vx	    ground_force2_vy	    ground_force2_vz	    ground_force2_px	    ground_force2_py	    ground_force2_pz	    ground_torque2_x	    ground_torque2_y	    ground_torque2_z	      hand_force3_vx	      hand_force3_vy	      hand_force3_vz	      hand_force3_px	      hand_force3_py	      hand_force3_pz	      hand_torque3_x	      hand_torque3_y	      hand_torque3_z	      hand_force4_vx	      hand_force4_vy	      hand_force4_vz	      hand_force4_px	      hand_force4_py	      hand_force4_pz	      hand_torque4_x	      hand_torque4_y	      hand_torque4_z	
3.225	         32.32609139	        350.84883188	        -18.08141045	          0.23136613	          0.00000000	          0.28956351	          0.00000000	         -4.17944602	          0.00000000	        -42.82404343	        439.58141793	        -13.71968084	          0.57950143	          0.00000000	          0.27428595	          0.00000000	          5.06347755	          0.00000000	        -11.94730207	        -68.58889991	         11.35641756	          0.21943910	          0.89100598	         -0.00167895	          0.00342639	         -0.40033882	          0.05260768	         11.56842168	        -64.86080588	         14.80768854	          0.60333248	          0.89100598	          0.00503349	         -0.00250900	          0.29308299	         -0.03864301	
3.226	         32.35255064	        351.14314453	        -18.10051255	          0.23138482	          0.00000000	          0.28968628	          0.00000000	         -4.18476497	          0.00000000	        -42.82259180	        439.58752093	        -13.80331557	          0.57948833	          0.00000000	          0.27438729	          0.00000000	          5.06446501	          0.00000000	        -12.03951380	        -68.58855372	         11.38663243	          0.21949443	          0.89188814	         -0.00198279	          0.00349653	         -0.40641076	          0.05336313	         11.61522384	        -64.82744649	         14.82944636	          0.60333059	          0.89188814	          0.00477312	         -0.00253143	          0.29382044	         -0.03871306	
3.227	         32.38066506	        351.44441592	        -18.11993874	          0.23140313	          0.00000000	          0.28980737	          0.00000000	         -4.19019274	          0.00000000	        -42.82092765	        439.58909328	        -13.88509187	          0.57947568	          0.00000000	          0.27448492	          0.00000000	          5.06551635	          0.00000000	        -12.13279469	        -68.58610544	         11.42039499	          0.21954985	          0.89276876	         -0.00228908	          0.00356741	         -0.41257875	          0.05412974	         11.66173111	        -64.79316195	         14.85179920	          0.60332822	          0.89276876	          0.00451173	         -0.00255312	          0.29453640	         -0.03877944	
3.228	         32.41042066	        351.75235236	        -18.13966278	          0.23142106	          0.00000000	          0.28992678	          0.00000000	         -4.19572609	          0.00000000	        -42.81901321	        439.58648822	        -13.96492175	          0.57946347	          0.00000000	          0.27457886	          0.00000000	          5.06663995	          0.00000000	        -12.22697986	        -68.58157457	         11.45757316	          0.21960540	          0.89364784	         -0.00259770	          0.00363899	         -0.41883685	          0.05490670	         11.70786603	        -64.75801649	         14.87463126	          0.60332539	          0.89364784	          0.00424940	         -0.00257405	          0.29522956	         -0.03884196	
3.229	         32.44179764	        352.06663881	        -18.15965877	          0.23143862	          0.00000000	          0.29004451	          0.00000000	         -4.20136159	          0.00000000	        -42.81680999	        439.58005387	        -14.04272239	          0.57945170	          0.00000000	          0.27466912	          0.00000000	          5.06784393	          0.00000000	        -12.32190282	        -68.57497831	         11.49802845	          0.21966111	          0.89452537	         -0.00290857	          0.00371123	         -0.42517910	          0.05569317	         11.75355085	        -64.72207241	         14.89782575	          0.60332213	          0.89452537	          0.00398616	         -0.00259420	          0.29589863	         -0.03890044	
3.23	         32.47477048	        352.38693985	        -18.17990119	          0.23145582	          0.00000000	          0.29016053	          0.00000000	         -4.20709558	          0.00000000	        -42.81427894	        439.57013151	        -14.11841621	          0.57944035	          0.00000000	          0.27475573	          0.00000000	          5.06913619	          0.00000000	        -12.41739615	        -68.56633135	         11.54161678	          0.21971700	          0.89540134	         -0.00322158	          0.00378411	         -0.43159955	          0.05648831	         11.79870795	        -64.68538969	         14.92126554	          0.60331849	          0.89540134	          0.00372208	         -0.00261356	          0.29654243	         -0.03895472	
3.231	         32.50930788	        352.71290072	        -18.20036483	          0.23147264	          0.00000000	          0.29027483	          0.00000000	         -4.21292422	          0.00000000	        -42.81138062	        439.55705399	        -14.19193086	          0.57942942	          0.00000000	          0.27483870	          0.00000000	          5.07052433	          0.00000000	        -12.51329217	        -68.55564572	         11.58818927	          0.21977312	          0.89627575	         -0.00353664	          0.00385757	         -0.43809227	          0.05729130	         11.84326031	        -64.64802564	         14.94483383	          0.60331450	          0.89627575	          0.00345719	         -0.00263212	          0.29715983	         -0.03900462	
